<?xml version="1.0" encoding="utf-8"?>
<svg version="1.1" id="Capa_1" xmlns="http://www.w3.org/2000/svg" xmlns:xlink="http://www.w3.org/1999/xlink" x="0px" y="0px"
	 viewBox="0 0 64 64" style="enable-background:new 0 0 64 64;" xml:space="preserve">
<style type="text/css">
	.st0{fill:#FFFFFF;}
</style>
<path class="st0" d="M18.62,11.89c1.72-0.04,3.44,0.16,5.11,0.57c1.56,0.28,2.84,0.85,3.98,1.56c1.14,0.71,2.03,1.75,2.56,2.98
	c0.59,1.44,0.88,2.98,0.85,4.54c0,1.97-0.43,3.69-1.43,4.97c-0.85,1.28-2.3,2.41-3.98,3.28c2.18,0.55,4.09,1.86,5.39,3.69
	c1.15,1.7,1.85,3.84,1.85,6.23c0.03,1.77-0.36,3.52-1.13,5.11c-0.72,1.43-1.79,2.65-3.11,3.56c-1.39,0.92-2.92,1.58-4.54,1.97
	c-1.67,0.44-3.39,0.67-5.11,0.7H0.05V11.89H18.62z M17.48,27.79c1.56,0,2.84-0.43,3.84-1.15s1.43-1.97,1.43-3.56
	c0.02-0.78-0.12-1.56-0.43-2.28c-0.28-0.57-0.7-0.98-1.28-1.43c-0.57-0.28-1.15-0.57-1.85-0.7c-0.7-0.13-1.43-0.16-2.3-0.16h-8.2
	v9.23L17.48,27.79z M17.89,44.59c0.81-0.02,1.62-0.11,2.41-0.28c1.42-0.28,2.66-1.16,3.39-2.41c0.28-0.7,0.57-1.56,0.57-2.56
	c0-1.97-0.57-3.41-1.7-4.43c-1.15-0.85-2.7-1.28-4.54-1.28H8.67v10.93L17.89,44.59z M45.31,44.43c1.15,1.15,2.84,1.7,5.11,1.7
	c1.45,0.02,2.87-0.38,4.1-1.15c0.95-0.62,1.7-1.51,2.13-2.56h6.97c-1.15,3.41-2.84,5.82-5.11,7.38c-2.3,1.43-4.97,2.3-8.25,2.3
	c-2.09,0.01-4.17-0.38-6.11-1.13c-1.75-0.65-3.31-1.73-4.54-3.13c-1.33-1.3-2.3-2.91-2.84-4.69c-0.71-1.96-1.05-4.03-1-6.11
	c0-2.13,0.28-4.1,0.98-5.97c0.68-1.79,1.69-3.43,2.98-4.84c1.3-1.33,2.84-2.39,4.54-3.13c1.9-0.76,3.92-1.15,5.97-1.15
	c2.41,0,4.54,0.43,6.39,1.43c1.85,1,3.28,2.13,4.43,3.84c1.16,1.64,2.03,3.46,2.56,5.39c0.28,1.97,0.43,3.98,0.28,6.23H43.34
	c-0.05,2.03,0.65,4,1.97,5.54L45.31,44.43z M54.26,29.51c-0.98-0.98-2.56-1.56-4.43-1.56c-1.28,0-2.3,0.28-3.11,0.7
	s-1.43,0.98-1.97,1.56c-0.51,0.55-0.85,1.23-0.98,1.97c-0.13,0.69-0.28,1.28-0.28,1.85h12.79c-0.14-1.69-0.84-3.28-2-4.52H54.26z
	 M41.8,14.59h15.9v3.84H41.8V14.59z"/>
</svg>
