<?xml version="1.0" encoding="utf-8"?>
<!-- Generator: Adobe Illustrator 24.1.0, SVG Export Plug-In . SVG Version: 6.00 Build 0)  -->
<svg version="1.1" id="Capa_1" xmlns="http://www.w3.org/2000/svg" xmlns:xlink="http://www.w3.org/1999/xlink" x="0px" y="0px"
	 viewBox="0 0 64 64" style="enable-background:new 0 0 64 64;" xml:space="preserve">
<style type="text/css">
	.st0{fill:#FFFFFF;}
</style>
<path class="st0" d="M59.26,0H4.72C2.12,0,0,2.07,0,4.61v54.77C0,61.93,2.12,64,4.72,64h54.54c2.61,0,4.74-2.07,4.74-4.62V4.61
	C64,2.07,61.87,0,59.26,0z M19,54.53H9.49V23.99H19V54.53z M14.24,19.8c-3.04-0.01-5.5-2.47-5.51-5.51c0-3.04,2.46-5.5,5.5-5.5
	c0,0,0,0,0.01,0c3.03,0,5.5,2.47,5.5,5.5S17.27,19.8,14.24,19.8z M54.55,54.54h-9.49V39.68c0-3.54-0.06-8.1-4.93-8.1
	c-4.94,0-5.7,3.86-5.7,7.84v15.11h-9.48V23.99h-0.01l0.01-0.01v0.01h9.09v4.17h0.13c1.27-2.4,4.36-4.93,9-4.93
	c9.61,0,11.39,6.33,11.39,14.55V54.54z"/>
</svg>
