<?xml version="1.0" encoding="utf-8"?>
<!-- Generator: Adobe Illustrator 24.1.0, SVG Export Plug-In . SVG Version: 6.00 Build 0)  -->
<svg version="1.1" id="Capa_1" xmlns="http://www.w3.org/2000/svg" xmlns:xlink="http://www.w3.org/1999/xlink" x="0px" y="0px"
	 viewBox="0 0 262 525" style="enable-background:new 0 0 262 525;" xml:space="preserve">
<style type="text/css">
	.st0{fill:#221B3A;}
</style>
<g>
	
		<rect x="272.55" y="494.64" transform="matrix(-0.7071 0.7071 -0.7071 -0.7071 845.1862 664.1685)" class="st0" width="24.98" height="24.98"/>
	
		<rect x="228" y="450.09" transform="matrix(-0.7071 0.7071 -0.7071 -0.7071 737.6339 619.6189)" class="st0" width="24.98" height="24.98"/>
	
		<rect x="183.45" y="405.54" transform="matrix(-0.7071 0.7071 -0.7071 -0.7071 630.0815 575.0693)" class="st0" width="24.98" height="24.98"/>
	
		<rect x="138.9" y="360.99" transform="matrix(-0.7071 0.7071 -0.7071 -0.7071 522.5292 530.5197)" class="st0" width="24.98" height="24.98"/>
	
		<rect x="94.35" y="316.44" transform="matrix(-0.7071 0.7071 -0.7071 -0.7071 414.9769 485.97)" class="st0" width="24.98" height="24.98"/>
	
		<rect x="49.8" y="271.89" transform="matrix(-0.7071 0.7071 -0.7071 -0.7071 307.4246 441.4204)" class="st0" width="24.98" height="24.98"/>
	
		<rect x="5.25" y="227.34" transform="matrix(-0.7071 0.7071 -0.7071 -0.7071 199.8723 396.8708)" class="st0" width="24.98" height="24.98"/>
	
		<rect x="316.71" y="450.47" transform="matrix(-0.7071 0.7071 -0.7071 -0.7071 889.3517 557.5434)" class="st0" width="24.98" height="24.98"/>
	
		<rect x="272.16" y="405.92" transform="matrix(-0.7071 0.7071 -0.7071 -0.7071 781.7994 512.9938)" class="st0" width="24.98" height="24.98"/>
	
		<rect x="227.61" y="361.37" transform="matrix(-0.7071 0.7071 -0.7071 -0.7071 674.2471 468.4441)" class="st0" width="24.98" height="24.98"/>
	
		<rect x="183.06" y="316.82" transform="matrix(-0.7071 0.7071 -0.7071 -0.7071 566.6948 423.8945)" class="st0" width="24.98" height="24.98"/>
	
		<rect x="138.51" y="272.27" transform="matrix(-0.7071 0.7071 -0.7071 -0.7071 459.1425 379.3449)" class="st0" width="24.98" height="24.98"/>
	
		<rect x="93.96" y="227.72" transform="matrix(-0.7071 0.7071 -0.7071 -0.7071 351.5902 334.7952)" class="st0" width="24.98" height="24.98"/>
	
		<rect x="49.42" y="183.17" transform="matrix(-0.7071 0.7071 -0.7071 -0.7071 244.0379 290.2456)" class="st0" width="24.98" height="24.98"/>
	
		<rect x="360.88" y="406.3" transform="matrix(-0.7071 0.7071 -0.7071 -0.7071 933.5173 450.9182)" class="st0" width="24.98" height="24.98"/>
	
		<rect x="316.33" y="361.76" transform="matrix(-0.7071 0.7071 -0.7071 -0.7071 825.965 406.3686)" class="st0" width="24.98" height="24.98"/>
	
		<rect x="271.78" y="317.21" transform="matrix(-0.7071 0.7071 -0.7071 -0.7071 718.4127 361.819)" class="st0" width="24.98" height="24.98"/>
	
		<rect x="227.23" y="272.66" transform="matrix(-0.7071 0.7071 -0.7071 -0.7071 610.8604 317.2693)" class="st0" width="24.98" height="24.98"/>
	
		<rect x="182.68" y="228.11" transform="matrix(-0.7071 0.7071 -0.7071 -0.7071 503.3081 272.7197)" class="st0" width="24.98" height="24.98"/>
	
		<rect x="138.13" y="183.56" transform="matrix(-0.7071 0.7071 -0.7071 -0.7071 395.7558 228.1701)" class="st0" width="24.98" height="24.98"/>
	
		<rect x="93.58" y="139.01" transform="matrix(-0.7071 0.7071 -0.7071 -0.7071 288.2034 183.6205)" class="st0" width="24.98" height="24.98"/>
	
		<rect x="405.04" y="362.14" transform="matrix(-0.7071 0.7071 -0.7071 -0.7071 977.6829 344.2931)" class="st0" width="24.98" height="24.98"/>
	
		<rect x="360.49" y="317.59" transform="matrix(-0.7071 0.7071 -0.7071 -0.7071 870.1306 299.7435)" class="st0" width="24.98" height="24.98"/>
	
		<rect x="315.94" y="273.04" transform="matrix(-0.7071 0.7071 -0.7071 -0.7071 762.5783 255.1938)" class="st0" width="24.98" height="24.98"/>
	
		<rect x="271.4" y="228.49" transform="matrix(-0.7071 0.7071 -0.7071 -0.7071 655.0259 210.6442)" class="st0" width="24.98" height="24.98"/>
	
		<rect x="226.85" y="183.94" transform="matrix(-0.7071 0.7071 -0.7071 -0.7071 547.4736 166.0946)" class="st0" width="24.98" height="24.98"/>
	
		<rect x="182.3" y="139.39" transform="matrix(-0.7071 0.7071 -0.7071 -0.7071 439.9213 121.545)" class="st0" width="24.98" height="24.98"/>
	
		<rect x="137.75" y="94.84" transform="matrix(-0.7071 0.7071 -0.7071 -0.7071 332.369 76.9953)" class="st0" width="24.98" height="24.98"/>
	
		<rect x="449.21" y="317.97" transform="matrix(-0.7071 0.7071 -0.7071 -0.7071 1021.8485 237.668)" class="st0" width="24.98" height="24.98"/>
	
		<rect x="404.66" y="273.42" transform="matrix(-0.7071 0.7071 -0.7071 -0.7071 914.2962 193.1183)" class="st0" width="24.98" height="24.98"/>
	
		<rect x="360.11" y="228.87" transform="matrix(-0.7071 0.7071 -0.7071 -0.7071 806.7438 148.5687)" class="st0" width="24.98" height="24.98"/>
	
		<rect x="315.56" y="184.32" transform="matrix(-0.7071 0.7071 -0.7071 -0.7071 699.1915 104.0191)" class="st0" width="24.98" height="24.98"/>
	
		<rect x="271.01" y="139.78" transform="matrix(-0.7071 0.7071 -0.7071 -0.7071 591.6392 59.4695)" class="st0" width="24.98" height="24.98"/>
	
		<rect x="226.46" y="95.23" transform="matrix(-0.7071 0.7071 -0.7071 -0.7071 484.0869 14.9198)" class="st0" width="24.98" height="24.98"/>
	
		<rect x="181.91" y="50.68" transform="matrix(-0.7071 0.7071 -0.7071 -0.7071 376.5346 -29.6298)" class="st0" width="24.98" height="24.98"/>
	
		<rect x="493.38" y="273.81" transform="matrix(-0.7071 0.7071 -0.7071 -0.7071 1066.014 131.0428)" class="st0" width="24.98" height="24.98"/>
	
		<rect x="448.83" y="229.26" transform="matrix(-0.7071 0.7071 -0.7071 -0.7071 958.4617 86.4932)" class="st0" width="24.98" height="24.98"/>
	
		<rect x="404.28" y="184.71" transform="matrix(-0.7071 0.7071 -0.7071 -0.7071 850.9094 41.9436)" class="st0" width="24.98" height="24.98"/>
	
		<rect x="359.73" y="140.16" transform="matrix(-0.7071 0.7071 -0.7071 -0.7071 743.3571 -2.6061)" class="st0" width="24.98" height="24.98"/>
	
		<rect x="315.18" y="95.61" transform="matrix(-0.7071 0.7071 -0.7071 -0.7071 635.8048 -47.1557)" class="st0" width="24.98" height="24.98"/>
	
		<rect x="270.63" y="51.06" transform="matrix(-0.7071 0.7071 -0.7071 -0.7071 528.2525 -91.7053)" class="st0" width="24.98" height="24.98"/>
	
		<rect x="226.08" y="6.51" transform="matrix(-0.7071 0.7071 -0.7071 -0.7071 420.7002 -136.2549)" class="st0" width="24.98" height="24.98"/>
</g>
</svg>
