<?xml version="1.0" encoding="utf-8"?>
<!-- Generator: Adobe Illustrator 24.1.0, SVG Export Plug-In . SVG Version: 6.00 Build 0)  -->
<svg version="1.1" id="Capa_1" xmlns="http://www.w3.org/2000/svg" xmlns:xlink="http://www.w3.org/1999/xlink" x="0px" y="0px"
	 viewBox="0 0 1114.97 877.61" style="enable-background:new 0 0 1114.97 877.61;" xml:space="preserve">
<style type="text/css">
	.st0{fill:#170F2D;}
	.st1{fill:#FFFFFF;}
</style>
<path class="st0" d="M599.63,72.85c-284.61,0-515.34,230.72-515.34,515.34s230.72,515.34,515.34,515.34s515.34-230.72,515.34-515.34
	S884.25,72.85,599.63,72.85z M599.63,828.68c-132.82,0-240.49-107.67-240.49-240.49S466.81,347.7,599.63,347.7
	s240.49,107.67,240.49,240.49S732.45,828.68,599.63,828.68z"/>
<g>
	<polygon class="st1" points="360.04,119.28 320.71,79.95 360.04,40.62 319.42,0 280.09,39.33 240.77,0 200.15,40.62 239.47,79.95 
		200.15,119.28 240.77,159.89 280.09,120.57 319.42,159.89 	"/>
	<polygon class="st1" points="625.14,413.5 568.93,469.71 512.73,413.5 454.67,471.56 510.88,527.76 454.67,583.97 512.73,642.02 
		568.93,585.82 625.14,642.02 683.19,583.97 626.99,527.76 683.19,471.56 	"/>
	<polygon class="st1" points="77.93,603.63 58.79,584.49 77.93,565.35 58.16,545.57 39.02,564.72 19.88,545.57 0.11,565.35 
		19.25,584.49 0.11,603.63 19.88,623.4 39.02,604.26 58.16,623.4 	"/>
</g>
</svg>
