<?xml version="1.0" encoding="utf-8"?>
<!-- Generator: Adobe Illustrator 24.1.0, SVG Export Plug-In . SVG Version: 6.00 Build 0)  -->
<svg version="1.1" id="Capa_1" xmlns="http://www.w3.org/2000/svg" xmlns:xlink="http://www.w3.org/1999/xlink" x="0px" y="0px"
	 viewBox="0 0 205.85 205.85" style="enable-background:new 0 0 205.85 205.85;" xml:space="preserve">
<style type="text/css">
	.st0{fill:#E7E7E7;}
</style>
<g>
	<path class="st0" d="M102.92,194.92c-50.81,0-92-41.19-92-92c0-1.66,0.16-3.28,0.25-4.92c-3.14-6.04-5.92-12.97-7.92-20.84
		C1.13,85.4,0,94.03,0,102.93c0,56.84,46.08,102.92,102.92,102.92c25.71,0,49.2-9.45,67.24-25.04c-0.37-1.46-1.61-5.69-4.45-10.78
		C149.26,185.42,127.23,194.92,102.92,194.92"/>
	<path class="st0" d="M22.25,58.7c0.11-0.19,0.24-0.38,0.35-0.57c-1.28-5.66-1.89-11.41-1.85-17.17c-2.61,3.46-4.99,7.09-7.15,10.87
		l2.32,2.11C17.69,55.53,20.11,57.35,22.25,58.7"/>
	<path class="st0" d="M102.92,0C80.47,0,59.72,7.21,42.8,19.41c1.48,3.72,3,7.14,4.54,10.33c15.45-11.75,34.67-18.81,55.58-18.81
		c50.81,0,92,41.19,92,92c0,10.08-1.68,19.76-4.68,28.84c1.36,4.58,2.31,9.31,2.74,14.17c0.18,2.13,0.18,4.31,0.19,6.5
		c8.08-14.7,12.68-31.56,12.68-49.51C205.85,46.08,159.77,0,102.92,0"/>
	<path class="st0" d="M102.92,187.41c22.77,0,43.4-9.05,58.59-23.7c-5.53-7.07-14.32-14.22-28.06-17.12
		c-13.93-2.95-27.85-3.91-41.29-4.84c-21.4-1.48-39.88-2.77-53.33-11.65c-1.32-0.85-10.78-7.25-20.03-19.86
		C22.53,153.47,58.74,187.41,102.92,187.41"/>
	<path class="st0" d="M102.92,18.43c-19.66,0-37.7,6.77-52.06,18.03c16.53,29.23,36.73,32.97,63.09,37.73
		c4.75,0.86,9.68,1.74,14.77,2.81c8.93,1.88,19.19,6.26,28.13,12.03c11.49,7.4,20.84,17,27.02,27.78c0.64,1.12,1.16,2.3,1.74,3.46
		c1.17-5.6,1.79-11.4,1.79-17.35C187.41,56.26,149.59,18.43,102.92,18.43"/>
	<path class="st0" d="M181.36,134.19c-8.96-29.76-38.42-44.78-54.54-48.17c-33.29-7.01-61.34-6.3-83.07-43.36
		c-1.25-2.14-2.49-4.37-3.7-6.77c-1.64-3.24-3.24-6.73-4.79-10.48c-0.66-1.6-1.32-3.23-1.96-4.92c-0.66,2-1.2,3.96-1.65,5.89
		c-0.14,0.63-0.23,1.23-0.36,1.86c-0.07,0.34-0.12,0.67-0.18,1.01l-0.01,0.01c-0.18,0.94-0.38,1.89-0.51,2.81
		c-0.11,0.73-0.15,1.43-0.24,2.15c-0.12,1.11-0.25,2.23-0.31,3.32c-0.05,0.74-0.05,1.46-0.06,2.18c-0.02,1.02-0.06,2.04-0.04,3.03
		c0.02,0.74,0.07,1.44,0.11,2.16c0.03,0.63,0.04,1.3,0.09,1.92c0.01-0.02,0.02-0.03,0.03-0.05c0.03,0.29,0.04,0.61,0.06,0.89
		c0.06,0.71,0.16,1.4,0.25,2.09c0.12,0.86,0.23,1.72,0.37,2.56c0.12,0.68,0.25,1.33,0.37,1.99c0.16,0.8,0.32,1.58,0.5,2.34
		c0.06,0.22,0.11,0.44,0.17,0.67c0.1,0.4,0.2,0.8,0.3,1.19c0.19,0.73,0.39,1.43,0.6,2.13c0.18,0.59,0.36,1.17,0.54,1.73
		c0.22,0.65,0.43,1.28,0.66,1.9c0.2,0.54,0.39,1.07,0.59,1.58c0.23,0.57,0.45,1.12,0.67,1.66c0.2,0.49,0.41,0.98,0.61,1.43
		c0.22,0.49,0.43,0.94,0.65,1.4c0.2,0.43,0.41,0.86,0.61,1.26c0.2,0.41,0.39,0.76,0.59,1.13s0.4,0.76,0.59,1.1
		c0.17,0.3,0.31,0.55,0.47,0.82c0.19,0.33,0.39,0.68,0.56,0.96c0.1,0.16,0.18,0.29,0.27,0.43c0.46,0.74,0.84,1.3,1.03,1.58
		l-0.01-0.01c-0.2-0.28-0.47-0.52-0.71-0.78c-0.19-0.2-0.35-0.42-0.56-0.61c-0.3-0.29-0.65-0.55-1-0.81
		c-0.23-0.18-0.44-0.37-0.69-0.55c-0.36-0.25-0.76-0.47-1.16-0.7c-0.27-0.16-0.52-0.33-0.81-0.48c-0.42-0.22-0.86-0.42-1.3-0.62
		c-0.3-0.14-0.59-0.29-0.89-0.42c-0.46-0.19-0.93-0.37-1.41-0.55c-0.32-0.12-0.63-0.25-0.95-0.37c-0.52-0.18-1.06-0.36-1.6-0.53
		c-0.29-0.09-0.57-0.19-0.86-0.28c-0.64-0.19-1.28-0.37-1.92-0.56c-0.2-0.05-0.39-0.11-0.59-0.17c-0.35-0.09-0.69-0.18-1.04-0.27
		c-0.49-0.13-0.98-0.26-1.46-0.39c-1.75-0.45-3.66-1.39-5.49-2.48c-4.47-2.66-8.47-6.26-8.47-6.26c0.69,7.24,2.18,13.73,4.09,19.62
		c1.5,4.64,3.27,8.89,5.23,12.72c10.23,20.03,24.81,29.28,24.81,29.28c19.12,12.68,55.27,7.55,91.49,15.19
		c15.64,3.31,25.86,11.27,32.5,19.38c1.72,2.1,3.2,4.2,4.47,6.24c2.46,3.98,4.15,7.69,5.23,10.57c1.32,3.53,1.79,5.84,1.79,5.84
		c1.3-3.88,2.29-7.63,3.03-11.25c1.59-7.76,1.95-14.91,1.39-21.49C183.38,142.37,182.55,138.15,181.36,134.19"/>
</g>
</svg>
